<mxfile host="65bd71144e">
    <diagram id="vWiICB77RwLmNEhAJSsu" name="Page-1">
        <mxGraphModel dx="1059" dy="318" grid="1" gridSize="10" guides="1" tooltips="1" connect="1" arrows="1" fold="1" page="1" pageScale="1" pageWidth="827" pageHeight="1169" math="0" shadow="0">
            <root>
                <mxCell id="0"/>
                <mxCell id="1" parent="0"/>
                <mxCell id="6" value="Container" style="swimlane;" parent="1" vertex="1">
                    <mxGeometry x="1010" y="80" width="540" height="420" as="geometry"/>
                </mxCell>
                <mxCell id="46" value="" style="rounded=0;whiteSpace=wrap;html=1;fontSize=8;" parent="6" vertex="1">
                    <mxGeometry x="30" y="60" width="490" height="70" as="geometry"/>
                </mxCell>
                <mxCell id="15" value="" style="rounded=0;whiteSpace=wrap;html=1;" parent="6" vertex="1">
                    <mxGeometry x="160" y="130" width="360" height="270" as="geometry"/>
                </mxCell>
                <mxCell id="16" value="" style="rounded=0;whiteSpace=wrap;html=1;" parent="6" vertex="1">
                    <mxGeometry x="27" y="60" width="133" height="340" as="geometry"/>
                </mxCell>
                <mxCell id="17" value="Header" style="rounded=0;whiteSpace=wrap;html=1;align=center;" parent="6" vertex="1">
                    <mxGeometry x="27" y="30" width="493" height="30" as="geometry"/>
                </mxCell>
                <mxCell id="33" value="Level ups" style="rounded=1;whiteSpace=wrap;html=1;" parent="6" vertex="1">
                    <mxGeometry x="33.5" y="140" width="120" height="220" as="geometry"/>
                </mxCell>
                <mxCell id="47" value="Picture" style="whiteSpace=wrap;html=1;aspect=fixed;fontSize=8;" parent="6" vertex="1">
                    <mxGeometry x="174" y="67.5" width="55" height="55" as="geometry"/>
                </mxCell>
                <mxCell id="48" value="" style="group" parent="6" vertex="1" connectable="0">
                    <mxGeometry x="43.5" y="75" width="100" height="40" as="geometry"/>
                </mxCell>
                <mxCell id="50" value="" style="group" parent="48" vertex="1" connectable="0">
                    <mxGeometry width="100" height="40" as="geometry"/>
                </mxCell>
                <mxCell id="32" value="" style="rounded=1;whiteSpace=wrap;html=1;" parent="50" vertex="1">
                    <mxGeometry width="100" height="40" as="geometry"/>
                </mxCell>
                <mxCell id="49" value="" style="group" parent="50" vertex="1" connectable="0">
                    <mxGeometry x="12.5" y="6.666666666666666" width="75" height="26.666666666666664" as="geometry"/>
                </mxCell>
                <mxCell id="35" value="Race" style="rounded=0;whiteSpace=wrap;html=1;fontSize=8;" parent="49" vertex="1">
                    <mxGeometry width="75" height="6.666666666666666" as="geometry"/>
                </mxCell>
                <mxCell id="36" value="Class&lt;span style=&quot;color: rgba(0 , 0 , 0 , 0) ; font-family: monospace ; font-size: 0px&quot;&gt;%3CmxGraphModel%3E%3Croot%3E%3CmxCell%20id%3D%220%22%2F%3E%3CmxCell%20id%3D%221%22%20parent%3D%220%22%2F%3E%3CmxCell%20id%3D%222%22%20value%3D%22Race%22%20style%3D%22rounded%3D0%3BwhiteSpace%3Dwrap%3Bhtml%3D1%3BfontSize%3D8%3B%22%20vertex%3D%221%22%20parent%3D%221%22%3E%3CmxGeometry%20x%3D%221058.5%22%20y%3D%22160%22%20width%3D%2290%22%20height%3D%2210%22%20as%3D%22geometry%22%2F%3E%3C%2FmxCell%3E%3C%2Froot%3E%3C%2FmxGraphModel%3E&lt;/span&gt;" style="rounded=0;whiteSpace=wrap;html=1;fontSize=8;" parent="49" vertex="1">
                    <mxGeometry y="10" width="75" height="6.666666666666666" as="geometry"/>
                </mxCell>
                <mxCell id="45" value="Background" style="rounded=0;whiteSpace=wrap;html=1;fontSize=8;" parent="49" vertex="1">
                    <mxGeometry y="20" width="75" height="6.666666666666666" as="geometry"/>
                </mxCell>
                <mxCell id="52" value="Name" style="rounded=1;whiteSpace=wrap;html=1;fontSize=8;" parent="6" vertex="1">
                    <mxGeometry x="240" y="71.25" width="120" height="22.5" as="geometry"/>
                </mxCell>
                <mxCell id="53" value="Race / Class / Level" style="rounded=1;whiteSpace=wrap;html=1;fontSize=8;" parent="6" vertex="1">
                    <mxGeometry x="241" y="96.25" width="119" height="22.5" as="geometry"/>
                </mxCell>
                <mxCell id="54" value="Ability Scores" style="rounded=1;whiteSpace=wrap;html=1;fontSize=8;" parent="6" vertex="1">
                    <mxGeometry x="174" y="140" width="196" height="20" as="geometry"/>
                </mxCell>
                <mxCell id="72" value="Saves" style="rounded=1;whiteSpace=wrap;html=1;fontSize=8;" parent="6" vertex="1">
                    <mxGeometry x="380" y="140" width="110" height="20" as="geometry"/>
                </mxCell>
                <mxCell id="73" value="Skills" style="rounded=1;whiteSpace=wrap;html=1;fontSize=8;verticalAlign=top;" parent="6" vertex="1">
                    <mxGeometry x="220" y="180" width="50" height="170" as="geometry"/>
                </mxCell>
                <mxCell id="74" value="Senses" style="rounded=1;whiteSpace=wrap;html=1;fontSize=8;" parent="6" vertex="1">
                    <mxGeometry x="174" y="180" width="36" height="70" as="geometry"/>
                </mxCell>
                <mxCell id="75" value="Profs" style="rounded=1;whiteSpace=wrap;html=1;fontSize=8;" parent="6" vertex="1">
                    <mxGeometry x="174" y="270" width="36" height="80" as="geometry"/>
                </mxCell>
                <mxCell id="76" value="&lt;blockquote style=&quot;margin: 0 0 0 40px ; border: none ; padding: 0px&quot;&gt;&lt;font style=&quot;font-size: 12px&quot;&gt;HP&lt;/font&gt;&lt;/blockquote&gt;" style="rounded=1;whiteSpace=wrap;html=1;fontSize=8;align=center;" parent="6" vertex="1">
                    <mxGeometry x="380" y="68.75" width="110" height="52.5" as="geometry"/>
                </mxCell>
                <mxCell id="77" value="AC" style="shape=or;whiteSpace=wrap;html=1;fontSize=8;rotation=0;direction=south;" parent="6" vertex="1">
                    <mxGeometry x="390.625" y="79.375" width="30" height="31.25" as="geometry"/>
                </mxCell>
                <mxCell id="78" value="Actions/Spells/Gear" style="rounded=1;whiteSpace=wrap;html=1;fontSize=12;" parent="6" vertex="1">
                    <mxGeometry x="277" y="180" width="213" height="170" as="geometry"/>
                </mxCell>
                <mxCell id="87" style="edgeStyle=none;html=1;exitX=0.5;exitY=0;exitDx=0;exitDy=0;entryX=0.75;entryY=1;entryDx=0;entryDy=0;startArrow=none;startFill=0;" edge="1" parent="1" source="7" target="13">
                    <mxGeometry relative="1" as="geometry"/>
                </mxCell>
                <mxCell id="7" value="online storage" style="shape=datastore;whiteSpace=wrap;html=1;" parent="1" vertex="1">
                    <mxGeometry x="384" y="300" width="60" height="60" as="geometry"/>
                </mxCell>
                <mxCell id="23" style="edgeStyle=none;html=1;exitX=0.5;exitY=1;exitDx=0;exitDy=0;entryX=0.45;entryY=0.017;entryDx=0;entryDy=0;entryPerimeter=0;" parent="1" source="8" target="13" edge="1">
                    <mxGeometry relative="1" as="geometry"/>
                </mxCell>
                <mxCell id="24" style="edgeStyle=none;html=1;exitX=0.5;exitY=1;exitDx=0;exitDy=0;entryX=0.5;entryY=0;entryDx=0;entryDy=0;" parent="1" source="8" edge="1">
                    <mxGeometry relative="1" as="geometry">
                        <mxPoint x="190" y="180" as="targetPoint"/>
                    </mxGeometry>
                </mxCell>
                <mxCell id="8" value="App" style="rounded=0;whiteSpace=wrap;html=1;" parent="1" vertex="1">
                    <mxGeometry x="200" y="80" width="120" height="60" as="geometry"/>
                </mxCell>
                <mxCell id="84" style="edgeStyle=none;html=1;exitX=1;exitY=0.5;exitDx=0;exitDy=0;startArrow=none;startFill=0;" edge="1" parent="1" source="10" target="83">
                    <mxGeometry relative="1" as="geometry"/>
                </mxCell>
                <mxCell id="10" value="Selector (Save/Load)" style="rhombus;whiteSpace=wrap;html=1;" parent="1" vertex="1">
                    <mxGeometry x="250" y="370" width="80" height="80" as="geometry"/>
                </mxCell>
                <mxCell id="30" style="edgeStyle=none;html=1;entryX=0.5;entryY=0;entryDx=0;entryDy=0;exitX=0.25;exitY=1;exitDx=0;exitDy=0;" parent="1" source="81" target="10" edge="1">
                    <mxGeometry relative="1" as="geometry">
                        <mxPoint x="310" y="250" as="sourcePoint"/>
                    </mxGeometry>
                </mxCell>
                <mxCell id="13" value="Display" style="rounded=1;whiteSpace=wrap;html=1;" parent="1" vertex="1">
                    <mxGeometry x="310" y="180" width="120" height="60" as="geometry"/>
                </mxCell>
                <mxCell id="20" value="" style="endArrow=none;html=1;" parent="1" edge="1">
                    <mxGeometry width="50" height="50" relative="1" as="geometry">
                        <mxPoint x="1045" y="117" as="sourcePoint"/>
                        <mxPoint x="1065" y="117" as="targetPoint"/>
                    </mxGeometry>
                </mxCell>
                <mxCell id="21" value="" style="endArrow=none;html=1;" parent="1" edge="1">
                    <mxGeometry width="50" height="50" relative="1" as="geometry">
                        <mxPoint x="1045" y="123" as="sourcePoint"/>
                        <mxPoint x="1065" y="123" as="targetPoint"/>
                    </mxGeometry>
                </mxCell>
                <mxCell id="22" value="" style="endArrow=none;html=1;" parent="1" edge="1">
                    <mxGeometry width="50" height="50" relative="1" as="geometry">
                        <mxPoint x="1045" y="130" as="sourcePoint"/>
                        <mxPoint x="1065" y="130" as="targetPoint"/>
                    </mxGeometry>
                </mxCell>
                <mxCell id="79" style="edgeStyle=none;html=1;exitX=0;exitY=0.5;exitDx=0;exitDy=0;" edge="1" parent="1" source="17" target="80">
                    <mxGeometry relative="1" as="geometry">
                        <mxPoint x="940" y="150" as="targetPoint"/>
                    </mxGeometry>
                </mxCell>
                <mxCell id="80" value="&lt;table border=&quot;1&quot; width=&quot;100%&quot; cellpadding=&quot;4&quot; style=&quot;width: 100% ; height: 100% ; border-collapse: collapse&quot;&gt;&lt;tbody&gt;&lt;tr&gt;&lt;th align=&quot;center&quot;&gt;Save/Load&lt;/th&gt;&lt;/tr&gt;&lt;tr&gt;&lt;td align=&quot;center&quot;&gt;Character1&lt;br&gt;Character2&lt;br&gt;Character3&lt;/td&gt;&lt;/tr&gt;&lt;tr&gt;&lt;td align=&quot;center&quot;&gt;More Options 1&lt;br&gt;More Options 2&lt;br&gt;More Options 3&lt;br&gt;&lt;/td&gt;&lt;/tr&gt;&lt;/tbody&gt;&lt;/table&gt;" style="text;html=1;strokeColor=default;fillColor=none;overflow=fill;perimeterSpacing=1;strokeWidth=2;" vertex="1" parent="1">
                    <mxGeometry x="830" y="100" width="160" height="140" as="geometry"/>
                </mxCell>
                <mxCell id="81" value="Menu" style="rounded=1;whiteSpace=wrap;html=1;" vertex="1" parent="1">
                    <mxGeometry x="140" y="180" width="120" height="60" as="geometry"/>
                </mxCell>
                <mxCell id="86" style="edgeStyle=none;html=1;exitX=0.5;exitY=0;exitDx=0;exitDy=0;entryX=1;entryY=0.5;entryDx=0;entryDy=0;startArrow=none;startFill=0;" edge="1" parent="1" source="83" target="13">
                    <mxGeometry relative="1" as="geometry"/>
                </mxCell>
                <mxCell id="83" value="Local storage" style="shape=tapeData;whiteSpace=wrap;html=1;perimeter=ellipsePerimeter;strokeColor=default;strokeWidth=2;" vertex="1" parent="1">
                    <mxGeometry x="530" y="300" width="80" height="80" as="geometry"/>
                </mxCell>
                <mxCell id="85" style="edgeStyle=none;html=1;exitX=1;exitY=0.5;exitDx=0;exitDy=0;startArrow=none;startFill=0;entryX=0.5;entryY=1;entryDx=0;entryDy=0;" edge="1" parent="1" source="10" target="7">
                    <mxGeometry relative="1" as="geometry">
                        <mxPoint x="220" y="440" as="sourcePoint"/>
                        <mxPoint x="410" y="440" as="targetPoint"/>
                    </mxGeometry>
                </mxCell>
            </root>
        </mxGraphModel>
    </diagram>
</mxfile>